<mxfile host="app.diagrams.net" agent="Mozilla/5.0 (X11; Linux x86_64; rv:133.0) Gecko/20100101 Firefox/133.0" version="24.9.0">
  <diagram name="Page-1" id="2jSC3qLbyk_4Ae9h-FCE">
    <mxGraphModel dx="1430" dy="926" grid="1" gridSize="10" guides="1" tooltips="1" connect="1" arrows="1" fold="1" page="1" pageScale="1" pageWidth="850" pageHeight="1100" math="0" shadow="0">
      <root>
        <mxCell id="0" />
        <mxCell id="1" parent="0" />
        <mxCell id="Lfw8khs8GBWtwFCRA9ys-13" value="" style="edgeStyle=orthogonalEdgeStyle;rounded=0;orthogonalLoop=1;jettySize=auto;html=1;" edge="1" parent="1" source="Lfw8khs8GBWtwFCRA9ys-1" target="Lfw8khs8GBWtwFCRA9ys-12">
          <mxGeometry relative="1" as="geometry" />
        </mxCell>
        <mxCell id="Lfw8khs8GBWtwFCRA9ys-14" value="播放声音" style="edgeLabel;html=1;align=center;verticalAlign=middle;resizable=0;points=[];" vertex="1" connectable="0" parent="Lfw8khs8GBWtwFCRA9ys-13">
          <mxGeometry x="-0.2053" y="1" relative="1" as="geometry">
            <mxPoint as="offset" />
          </mxGeometry>
        </mxCell>
        <mxCell id="Lfw8khs8GBWtwFCRA9ys-1" value="&lt;font style=&quot;font-size: 18px;&quot;&gt;AudioCTRL&lt;br&gt;&lt;/font&gt;" style="rounded=1;whiteSpace=wrap;html=1;fillColor=#fff2cc;strokeColor=#d6b656;" vertex="1" parent="1">
          <mxGeometry x="555" y="435" width="120" height="60" as="geometry" />
        </mxCell>
        <mxCell id="Lfw8khs8GBWtwFCRA9ys-8" style="edgeStyle=orthogonalEdgeStyle;rounded=0;orthogonalLoop=1;jettySize=auto;html=1;entryX=0;entryY=0.5;entryDx=0;entryDy=0;" edge="1" parent="1" source="Lfw8khs8GBWtwFCRA9ys-3" target="Lfw8khs8GBWtwFCRA9ys-1">
          <mxGeometry relative="1" as="geometry" />
        </mxCell>
        <mxCell id="Lfw8khs8GBWtwFCRA9ys-3" value="WebAudio" style="html=1;shadow=0;dashed=0;align=center;verticalAlign=middle;shape=mxgraph.arrows2.arrow;dy=0;dx=30;notch=30;fillColor=#d5e8d4;strokeColor=#82b366;" vertex="1" parent="1">
          <mxGeometry x="330" y="400" width="120" height="30" as="geometry" />
        </mxCell>
        <mxCell id="Lfw8khs8GBWtwFCRA9ys-11" style="edgeStyle=orthogonalEdgeStyle;rounded=0;orthogonalLoop=1;jettySize=auto;html=1;entryX=0;entryY=0.5;entryDx=0;entryDy=0;" edge="1" parent="1" source="Lfw8khs8GBWtwFCRA9ys-6" target="Lfw8khs8GBWtwFCRA9ys-1">
          <mxGeometry relative="1" as="geometry" />
        </mxCell>
        <mxCell id="Lfw8khs8GBWtwFCRA9ys-6" value="Music" style="html=1;shadow=0;dashed=0;align=center;verticalAlign=middle;shape=mxgraph.arrows2.arrow;dy=0;dx=30;notch=30;fillColor=#d5e8d4;strokeColor=#82b366;" vertex="1" parent="1">
          <mxGeometry x="330" y="500" width="120" height="30" as="geometry" />
        </mxCell>
        <mxCell id="Lfw8khs8GBWtwFCRA9ys-9" value="" style="edgeStyle=orthogonalEdgeStyle;rounded=0;orthogonalLoop=1;jettySize=auto;html=1;" edge="1" parent="1" source="Lfw8khs8GBWtwFCRA9ys-7" target="Lfw8khs8GBWtwFCRA9ys-1">
          <mxGeometry relative="1" as="geometry" />
        </mxCell>
        <mxCell id="Lfw8khs8GBWtwFCRA9ys-7" value="MicAudio" style="html=1;shadow=0;dashed=0;align=center;verticalAlign=middle;shape=mxgraph.arrows2.arrow;dy=0;dx=30;notch=30;fillColor=#d5e8d4;strokeColor=#82b366;" vertex="1" parent="1">
          <mxGeometry x="330" y="450" width="120" height="30" as="geometry" />
        </mxCell>
        <mxCell id="Lfw8khs8GBWtwFCRA9ys-12" value="&lt;font style=&quot;font-size: 14px;&quot;&gt;AudioPlayer&lt;/font&gt;" style="shape=hexagon;perimeter=hexagonPerimeter2;whiteSpace=wrap;html=1;fixedSize=1;size=20;fillColor=#dae8fc;strokeColor=#6c8ebf;" vertex="1" parent="1">
          <mxGeometry x="555" y="330" width="120" height="40" as="geometry" />
        </mxCell>
        <mxCell id="Lfw8khs8GBWtwFCRA9ys-19" value="&lt;font style=&quot;font-size: 14px;&quot;&gt;AudioRecorder&lt;/font&gt;" style="shape=hexagon;perimeter=hexagonPerimeter2;whiteSpace=wrap;html=1;fixedSize=1;size=20;fillColor=#dae8fc;strokeColor=#6c8ebf;" vertex="1" parent="1">
          <mxGeometry x="100" y="445" width="120" height="40" as="geometry" />
        </mxCell>
        <mxCell id="Lfw8khs8GBWtwFCRA9ys-20" style="edgeStyle=orthogonalEdgeStyle;rounded=0;orthogonalLoop=1;jettySize=auto;html=1;entryX=0;entryY=0.5;entryDx=30;entryDy=0;entryPerimeter=0;" edge="1" parent="1" source="Lfw8khs8GBWtwFCRA9ys-19" target="Lfw8khs8GBWtwFCRA9ys-7">
          <mxGeometry relative="1" as="geometry" />
        </mxCell>
        <mxCell id="Lfw8khs8GBWtwFCRA9ys-25" value="传递录音" style="edgeLabel;html=1;align=center;verticalAlign=middle;resizable=0;points=[];" vertex="1" connectable="0" parent="Lfw8khs8GBWtwFCRA9ys-20">
          <mxGeometry x="-0.2956" relative="1" as="geometry">
            <mxPoint as="offset" />
          </mxGeometry>
        </mxCell>
        <mxCell id="Lfw8khs8GBWtwFCRA9ys-21" value="&lt;font style=&quot;font-size: 14px;&quot;&gt;Signaling&lt;/font&gt;" style="shape=hexagon;perimeter=hexagonPerimeter2;whiteSpace=wrap;html=1;fixedSize=1;size=20;fillColor=#dae8fc;strokeColor=#6c8ebf;" vertex="1" parent="1">
          <mxGeometry x="100" y="395" width="120" height="40" as="geometry" />
        </mxCell>
        <mxCell id="Lfw8khs8GBWtwFCRA9ys-23" style="edgeStyle=orthogonalEdgeStyle;rounded=0;orthogonalLoop=1;jettySize=auto;html=1;entryX=0;entryY=0.5;entryDx=30;entryDy=0;entryPerimeter=0;" edge="1" parent="1" source="Lfw8khs8GBWtwFCRA9ys-21" target="Lfw8khs8GBWtwFCRA9ys-3">
          <mxGeometry relative="1" as="geometry">
            <Array as="points">
              <mxPoint x="300" y="415" />
              <mxPoint x="300" y="415" />
            </Array>
          </mxGeometry>
        </mxCell>
        <mxCell id="Lfw8khs8GBWtwFCRA9ys-24" value="传递track" style="edgeLabel;html=1;align=center;verticalAlign=middle;resizable=0;points=[];" vertex="1" connectable="0" parent="Lfw8khs8GBWtwFCRA9ys-23">
          <mxGeometry x="-0.4324" y="-1" relative="1" as="geometry">
            <mxPoint x="10" y="-1" as="offset" />
          </mxGeometry>
        </mxCell>
        <mxCell id="Lfw8khs8GBWtwFCRA9ys-27" value="&lt;div&gt;&lt;font style=&quot;font-size: 14px;&quot;&gt;User&lt;/font&gt;&lt;/div&gt;&lt;div&gt;&lt;font style=&quot;font-size: 14px;&quot;&gt;CTRL&lt;br&gt;&lt;/font&gt;&lt;/div&gt;" style="html=1;shadow=0;dashed=0;align=center;verticalAlign=middle;shape=mxgraph.arrows2.arrow;dy=0.6;dx=40;direction=north;notch=0;fillColor=#f5f5f5;fontColor=#333333;strokeColor=#666666;" vertex="1" parent="1">
          <mxGeometry x="560" y="510" width="110" height="80" as="geometry" />
        </mxCell>
      </root>
    </mxGraphModel>
  </diagram>
</mxfile>
